<svg xmlns="http://www.w3.org/2000/svg" viewBox="0 0 47.67 69.24">
  <g stroke="#a6a5a6" stroke-miterlimit="10">
    <path d="M37.15 8.67h9a1 1 0 0 1 1 1v58.07a1 1 0 0 1-1 1H1.5a1 1 0 0 1-1-1V9.67a1 1 0 0 1 1-1h9" fill="#fcfcfc"/>
    <rect x="10.52" y="5.23" width="26.63" height="6.88" rx="1" ry="1" fill="#fcfcfc"/>
    <path d="M20.15.5h7.38a1 1 0 0 1 1 1v3.73h-9.38V1.5a1 1 0 0 1 1-1z" fill="#fcfcfc"/>
    <circle cx="23.83" cy="2.87" r=".83" fill="none"/>
    <rect x="7.12" y="18.29" width="4.52" height="4.52" rx="1" ry="1" fill="none"/>
    <path fill="none" stroke-linecap="round" d="M15.79 20.55h24.75"/>
    <rect x="7.12" y="28" width="4.52" height="4.52" rx="1" ry="1" fill="none"/>
    <path fill="none" stroke-linecap="round" d="M15.79 30.26h24.75"/>
    <rect x="7.12" y="37.71" width="4.52" height="4.52" rx="1" ry="1" fill="none"/>
    <path fill="none" stroke-linecap="round" d="M15.79 39.97h24.75"/>
    <rect x="7.12" y="47.42" width="4.52" height="4.52" rx="1" ry="1" fill="none"/>
    <path fill="none" stroke-linecap="round" d="M15.79 49.68h24.75"/>
    <rect x="7.12" y="57.12" width="4.52" height="4.52" rx="1" ry="1" fill="none"/>
    <path fill="none" stroke-linecap="round" d="M15.79 59.39h24.75"/>
  </g>
</svg>
