<svg xmlns="http://www.w3.org/2000/svg" viewBox="0 0 22.99 22.99">
  <g fill="#484848">
    <path d="M17.63 7.5h-1.49v-1a.5.5 0 0 0-.5-.5H14a.5.5 0 0 0-.5.5v1H9.45v-1A.5.5 0 0 0 9 6H7.35a.5.5 0 0 0-.5.5v1H5.36a.5.5 0 0 0-.5.5v9a.5.5 0 0 0 .5.5h12.27a.5.5 0 0 0 .5-.5V8a.5.5 0 0 0-.5-.5zM14.54 7h.6v2h-.6zM7.85 7h.6v2h-.6zm9.28 9.48H5.86v-8h1v1a.5.5 0 0 0 .5.5H9a.5.5 0 0 0 .5-.5v-1h4.09v1a.5.5 0 0 0 .5.5h1.6a.5.5 0 0 0 .5-.5v-1h1z"/>
    <path d="M13.55 11.25l-2.86 2.85-1.25-1.25a.5.5 0 0 0-.71.71l1.61 1.6a.5.5 0 0 0 .35.15.51.51 0 0 0 .36-.15L14.26 12a.5.5 0 0 0 0-.7.5.5 0 0 0-.71-.05z"/>
  </g>
</svg>
