<svg xmlns="http://www.w3.org/2000/svg" viewBox="0 0 22.99 22.99"><title>completed-button-2</title><g id="icon"><path d="M17.63,7.5H16.14v-1a.5.5,0,0,0-.5-.5H14a.5.5,0,0,0-.5.5v1H9.45v-1A.5.5,0,0,0,9,6H7.35a.5.5,0,0,0-.5.5v1H5.36a.5.5,0,0,0-.5.5v9a.5.5,0,0,0,.5.5H17.63a.5.5,0,0,0,.5-.5V8A.5.5,0,0,0,17.63,7.5ZM14.54,7h.6V9h-.6ZM7.85,7h.6V9h-.6Zm9.28,9.48H5.86v-8h1v1a.5.5,0,0,0,.5.5H9a.5.5,0,0,0,.5-.5v-1h4.09v1a.5.5,0,0,0,.5.5h1.6a.5.5,0,0,0,.5-.5v-1h1Z" fill="#484848"/><path d="M13.55,11.25,10.69,14.1,9.44,12.85a.5.5,0,0,0-.71.71l1.61,1.6a.5.5,0,0,0,.35.15.51.51,0,0,0,.36-.15L14.26,12a.5.5,0,0,0,0-.7A.5.5,0,0,0,13.55,11.25Z" fill="#484848"/></g></svg>