<svg xmlns="http://www.w3.org/2000/svg" viewBox="0 0 13.27 11.48"><title>date-add</title><g id="icon"><path d="M12.77,1.49H11.28V.5a.5.5,0,0,0-.5-.5H9.18a.5.5,0,0,0-.5.5v1H4.59V.5a.5.5,0,0,0-.5-.5H2.49A.5.5,0,0,0,2,.5v1H.5A.5.5,0,0,0,0,2v9a.5.5,0,0,0,.5.5H12.77a.5.5,0,0,0,.5-.5V2A.5.5,0,0,0,12.77,1.49ZM9.68,1h.6V3h-.6ZM3,1h.6V3H3Zm9.28,9.48H1v-8H2v1a.5.5,0,0,0,.5.5h1.6a.5.5,0,0,0,.5-.5v-1H8.68v1a.5.5,0,0,0,.5.5h1.6a.5.5,0,0,0,.5-.5v-1h1Z" fill="#484848"/><path d="M8.24,6.31H7.14V5.21a.5.5,0,0,0-1,0v1.1H5a.5.5,0,0,0,0,1h1.1v1.1a.5.5,0,0,0,1,0V7.31h1.1a.5.5,0,0,0,0-1Z" fill="#484848"/></g></svg>