<svg xmlns="http://www.w3.org/2000/svg" viewBox="0 0 13.27 11.48">
  <g fill="#484848">
    <path d="M12.77 1.49h-1.49V.5a.5.5 0 0 0-.5-.5h-1.6a.5.5 0 0 0-.5.5v1H4.59v-1a.5.5 0 0 0-.5-.5h-1.6A.5.5 0 0 0 2 .5v1H.5A.5.5 0 0 0 0 2v9a.5.5 0 0 0 .5.5h12.27a.5.5 0 0 0 .5-.5V2a.5.5 0 0 0-.5-.51zM9.68 1h.6v2h-.6zM3 1h.6v2H3zm9.28 9.48H1v-8h1v1a.5.5 0 0 0 .5.5h1.6a.5.5 0 0 0 .5-.5v-1h4.08v1a.5.5 0 0 0 .5.5h1.6a.5.5 0 0 0 .5-.5v-1h1z"/>
    <path d="M8.69 5.23L5.83 8.09 4.58 6.84a.5.5 0 0 0-.71.71l1.61 1.6a.5.5 0 0 0 .71 0L9.4 5.94a.5.5 0 0 0-.71-.71z"/>
  </g>
</svg>
