<svg xmlns="http://www.w3.org/2000/svg" viewBox="0 0 22.99 22.99">
  <g fill="#484848">
    <path d="M15 9a.43.43 0 0 0-.43.39L14.25 17h-5.5l-.32-7.57A.43.43 0 0 0 8 9a.41.41 0 0 0-.39.43L8 17.37a.41.41 0 0 0 .4.39h6.29a.41.41 0 0 0 .41-.39l.33-7.9A.41.41 0 0 0 15 9z"/>
    <path d="M15.43 7.19h-2.18a.51.51 0 0 0 0-.13V5.64a.41.41 0 0 0-.41-.41h-2.71a.41.41 0 0 0-.41.41v1.42a.28.28 0 0 0 0 .13H7.56a.41.41 0 0 0-.41.41.42.42 0 0 0 .41.4h7.87a.41.41 0 0 0 .41-.41.41.41 0 0 0-.41-.4zm-4.89-.13v-1h1.91v1a.5.5 0 0 0 0 .13h-2a.28.28 0 0 0 .09-.13z"/>
    <path d="M10.23 15.59a.42.42 0 0 0 .41-.42l-.1-5.17a.41.41 0 0 0-.42-.41.42.42 0 0 0-.4.42l.1 5.14a.4.4 0 0 0 .41.44z"/>
    <path d="M12.77 15.59a.4.4 0 0 0 .4-.4l.1-5.14a.41.41 0 0 0-.4-.42.4.4 0 0 0-.42.41l-.09 5.13a.41.41 0 0 0 .4.42z"/>
  </g>
</svg>
