<svg xmlns="http://www.w3.org/2000/svg" viewBox="0 0 9.09 12.9"><title>trash</title><g id="icon"><path d="M8,3.77a.66.66,0,0,0-.68.62L7,11.59h-5L1.76,4.4a.65.65,0,0,0-1.3.05l.33,7.82a.65.65,0,0,0,.65.63H7.65a.65.65,0,0,0,.65-.63l.33-7.82A.65.65,0,0,0,8,3.77Z" fill="#484848"/><path d="M8.44,1.94H6.55V.65A.65.65,0,0,0,5.9,0H3.19a.65.65,0,0,0-.65.65V1.94H.65a.65.65,0,1,0,0,1.31H8.44a.65.65,0,1,0,0-1.31ZM3.85,1.31h1.4v.63H3.85Z" fill="#484848"/><path d="M3.29,10.74h0a.65.65,0,0,0,.64-.67L3.85,5a.67.67,0,0,0-.67-.64A.65.65,0,0,0,2.54,5l.1,5.08A.65.65,0,0,0,3.29,10.74Z" fill="#484848"/><path d="M5.8,10.74a.65.65,0,0,0,.65-.64L6.55,5A.65.65,0,1,0,5.24,5l-.1,5.08a.65.65,0,0,0,.64.67Z" fill="#484848"/></g></svg>